<?xml version="1.0" standalone="no"?>
<!DOCTYPE svg PUBLIC "-//W3C//DTD SVG 20010904//EN"
 "http://www.w3.org/TR/2001/REC-SVG-20010904/DTD/svg10.dtd">
<svg version="1.0" xmlns="http://www.w3.org/2000/svg"
 width="658.000000pt" height="379.000000pt" viewBox="0 0 658.000000 379.000000"
 preserveAspectRatio="xMidYMid meet">
<metadata>
Created by potrace 1.16, written by Peter Selinger 2001-2019
</metadata>
<g transform="translate(0.000000,379.000000) scale(0.100000,-0.100000)"
fill="#fff" stroke="none">
<path d="M3348 2760 c-224 -40 -502 -153 -724 -293 -102 -65 -275 -189 -270
-195 2 -1 111 47 242 109 304 142 387 174 504 194 178 31 490 41 490 16 0 -10
-105 -138 -164 -199 -67 -71 -165 -140 -224 -160 -39 -12 -146 -16 -627 -23
-761 -10 -974 -23 -1174 -75 -252 -66 -423 -213 -446 -384 l-6 -45 27 50 c40
74 156 184 239 227 155 80 240 93 720 109 272 9 477 9 915 0 705 -16 1096 -4
1600 45 91 9 167 18 170 21 2 2 -67 1 -155 -3 -171 -7 -1081 13 -1103 25 -8 5
35 53 130 147 220 216 318 276 448 276 112 0 513 -94 757 -176 103 -35 166
-71 215 -123 37 -39 100 -145 91 -154 -13 -12 -188 -46 -343 -68 -368 -51
-810 -72 -1490 -73 -283 -1 -510 -2 -505 -4 24 -8 315 -45 480 -61 227 -22
970 -25 1190 -5 238 22 529 62 790 108 138 24 266 44 286 44 71 0 101 -72 102
-240 0 -157 -17 -222 -91 -329 -61 -90 -91 -155 -69 -149 26 7 174 87 184 100
19 23 74 161 88 221 12 50 12 70 0 130 -7 40 -19 119 -25 177 -9 83 -18 120
-45 177 -31 67 -36 72 -72 78 -153 26 -275 73 -603 233 -242 118 -349 157
-566 206 -280 63 -396 78 -639 82 -186 3 -237 1 -327 -16z"/>
<path d="M2556 1924 c-67 -16 -158 -62 -207 -105 l-34 -29 55 24 c131 56 283
61 383 13 102 -50 184 -164 207 -287 5 -29 10 -111 10 -181 l0 -129 28 5 c15
3 380 34 812 70 432 36 801 68 820 73 34 7 35 8 38 62 12 202 115 377 266 450
71 34 52 39 -36 9 -174 -58 -296 -196 -343 -387 -15 -65 -20 -72 -41 -72 -33
0 -1263 -78 -1346 -85 l-68 -6 0 83 c0 242 -138 439 -345 493 -71 18 -121 18
-199 -1z"/>
<path d="M4960 1811 c-53 -17 -89 -42 -133 -91 -141 -157 -96 -426 86 -514 73
-36 123 -41 190 -22 227 66 298 371 128 549 -52 55 -104 79 -181 83 -36 2 -76
0 -90 -5z"/>
<path d="M2463 1766 c-79 -25 -155 -88 -200 -166 -65 -112 -72 -273 -16 -392
39 -82 105 -151 181 -186 45 -21 72 -26 132 -27 66 0 85 5 142 33 243 119 288
467 85 659 -88 84 -212 114 -324 79z"/>
</g>
</svg>
